<?xml version="1.0" encoding="UTF-8"?>
<svg version="1.1" xmlns="http://www.w3.org/2000/svg" width="800" height="600">
<path d="M0 0 C264 0 528 0 800 0 C800 198 800 396 800 600 C536 600 272 600 0 600 C0 402 0 204 0 0 Z " fill="#F5F5F6" transform="translate(0,0)"/>
<path d="M0 0 C2.68272014 2.35819754 5.14211045 4.72563261 7.49609375 7.41015625 C11.38413991 9.87885327 14.64409532 8.94962214 19 8 C21.90821993 7.28258416 24.72896785 6.40684957 27.5625 5.4375 C28.32755859 5.18154053 29.09261719 4.92558105 29.88085938 4.66186523 C36.21870995 2.45600634 42.15229362 -0.35387966 48.04907227 -3.54711914 C49.67260146 -4.4167095 51.33360045 -5.21568695 53 -6 C53.66 -5.67 54.32 -5.34 55 -5 C48.77565727 9.05381683 41.28119858 18.97680838 29.36328125 28.79296875 C28.68845703 29.39044922 28.68845703 29.39044922 28 30 C28 30.33 28 30.66 28 31 C37.47246025 29.32598763 46.499406 27.07859352 55.63671875 24.0859375 C58.0891806 23.29408571 60.49081507 22.57171302 63 22 C60.39314592 26.86814844 57.68103977 30.7567929 53.875 34.8125 C53.15812012 35.57735718 53.15812012 35.57735718 52.42675781 36.35766602 C50.96014438 37.91394879 49.48203355 39.45840716 48 41 C47.11054687 41.93070313 46.22109375 42.86140625 45.3046875 43.8203125 C38.65938143 50.62819486 38.65938143 50.62819486 36.17285156 52.03027344 C33.24807159 53.71324739 31.32564588 54.82538635 30.39550781 58.18041992 C30.18636787 60.93135336 30.18650467 63.61686401 30.25 66.375 C30.22687345 68.45192926 30.19538742 70.5287795 30.15625 72.60546875 C30.13949219 73.66685059 30.12273437 74.72823242 30.10546875 75.82177734 C28.44794863 125.76991829 4.89270191 173.10316349 -29.51074219 208.45947266 C-30.72766485 209.71828938 -31.91856101 211.00222177 -33.1015625 212.29296875 C-65.91459772 247.34654162 -117.31762882 262.19274809 -163.69140625 264.3515625 C-187.35622211 265.07108913 -210.69865789 260.83768599 -233 253 C-233.75249023 252.73993164 -234.50498047 252.47986328 -235.28027344 252.21191406 C-264.78099395 241.86322851 -264.78099395 241.86322851 -273 233 C-271.92854736 233.01571045 -271.92854736 233.01571045 -270.83544922 233.03173828 C-251.80773062 233.43567806 -251.80773062 233.43567806 -233 231 C-231.15728516 230.61521484 -231.15728516 230.61521484 -229.27734375 230.22265625 C-209.04896316 225.71543684 -190.37639225 217.77358596 -174 205 C-173.34 205 -172.68 205 -172 205 C-172 204.34 -172 203.68 -172 203 C-172.91265625 203.08701172 -172.91265625 203.08701172 -173.84375 203.17578125 C-190.10131208 204.01256753 -205.38070816 196.39413478 -217.25 185.75 C-226.51372701 177.04838873 -232.01742713 168.04345353 -236 156 C-235.40050537 156.01047363 -234.80101074 156.02094727 -234.18334961 156.03173828 C-231.4347767 156.07362837 -228.68627126 156.09943003 -225.9375 156.125 C-224.99455078 156.14175781 -224.05160156 156.15851563 -223.08007812 156.17578125 C-217.63476062 156.21372771 -213.14500612 155.81252643 -208 154 C-208.71542969 153.8040625 -209.43085938 153.608125 -210.16796875 153.40625 C-230.01077734 147.45084044 -244.04990475 134.6984673 -254 117 C-254.44085938 116.23171875 -254.88171875 115.4634375 -255.3359375 114.671875 C-259.58798061 106.29566978 -261.28998087 95.32288481 -261 86 C-258.0524155 86.96948576 -255.12017623 87.95539678 -252.2109375 89.03515625 C-245.10441188 91.60955878 -238.54586603 92.7324161 -231 93 C-231.64066406 92.443125 -232.28132813 91.88625 -232.94140625 91.3125 C-247.14077501 78.78489 -258.86021311 63.84073614 -260.12231445 44.08544922 C-260.70491677 29.07859917 -259.1025394 15.50324685 -252 2 C-247.93192001 3.5719747 -245.49456939 6.49202188 -242.6875 9.6875 C-241.70280229 10.78213181 -240.71712896 11.87588678 -239.73046875 12.96875 C-239.25786621 13.4946875 -238.78526367 14.020625 -238.29833984 14.5625 C-208.08006327 48.01966669 -161.04065203 69.41565424 -116.375 72.6875 C-115.39273438 72.73261719 -114.41046875 72.77773437 -113.3984375 72.82421875 C-111 73 -111 73 -108 74 C-108.23976563 72.28876953 -108.23976563 72.28876953 -108.484375 70.54296875 C-110.96081991 50.56894762 -107.51735511 32.1626023 -95.67578125 15.6328125 C-72.4295013 -13.79001526 -31.32469339 -20.84188121 0 0 Z " fill="#049EF2" transform="translate(505,174)"/>
<path d="M0 0 C0.33 0.99 0.66 1.98 1 3 C0.34 3 -0.32 3 -1 3 C-1 11.25 -1 19.5 -1 28 C-1.66 28 -2.32 28 -3 28 C-2.98839844 28.75925781 -2.97679687 29.51851563 -2.96484375 30.30078125 C-2.95582031 31.29464844 -2.94679688 32.28851563 -2.9375 33.3125 C-2.92589844 34.29863281 -2.91429687 35.28476562 -2.90234375 36.30078125 C-3 39 -3 39 -4 42 C-4.22560676 44.39254576 -4.40848595 46.78928123 -4.5625 49.1875 C-4.68818359 51.09595703 -4.68818359 51.09595703 -4.81640625 53.04296875 C-4.90728516 54.50669922 -4.90728516 54.50669922 -5 56 C-5.66 56 -6.32 56 -7 56 C-7 57.65 -7 59.3 -7 61 C-7.66 61 -8.32 61 -9 61 C-9 63.31 -9 65.62 -9 68 C-9.66 68 -10.32 68 -11 68 C-10.56544658 63.48064445 -9.84780905 59.31016272 -8.625 54.9375 C-4.80970139 40.05035443 -3.63831167 24.50826362 -3.46630859 9.1862793 C-3.44648926 8.27273682 -3.42666992 7.35919434 -3.40625 6.41796875 C-3.39561523 5.20790161 -3.39561523 5.20790161 -3.38476562 3.97338867 C-3.25779297 3.32217041 -3.13082031 2.67095215 -3 2 C-2.01 1.34 -1.02 0.68 0 0 Z " fill="#C1F0FC" transform="translate(538,228)"/>
<path d="M0 0 C1.7296294 0.11842508 3.45868082 0.24528265 5.1875 0.375 C6.15042969 0.44460938 7.11335938 0.51421875 8.10546875 0.5859375 C11.4785602 0.94456106 14.75905609 1.4590037 18.1015625 2.0234375 C24.83235971 3.07712063 31.38414033 3.30542049 38.1875 3.25 C39.35643799 3.24613281 40.52537598 3.24226563 41.72973633 3.23828125 C49.98697192 3.1565433 58.05730098 2.5805435 66.23046875 1.4375 C70.21808074 0.97468907 73.99099106 0.92864945 78 1 C73.24423246 5.75576754 65.80204202 5.04580457 59.48022461 5.11352539 C57.45425742 5.1133693 55.42828528 5.10785406 53.40234375 5.09765625 C52.32747208 5.0962413 51.2526004 5.09482635 50.14515686 5.09336853 C46.74257517 5.08781151 43.34006149 5.07526713 39.9375 5.0625 C37.6178395 5.05747944 35.29817796 5.05291751 32.97851562 5.04882812 C27.31898757 5.03785619 21.65949865 5.0211614 16 5 C16 4.67 16 4.34 16 4 C15.26394531 3.95101563 14.52789062 3.90203125 13.76953125 3.8515625 C12.79371094 3.77679688 11.81789063 3.70203125 10.8125 3.625 C9.84957031 3.55539062 8.88664062 3.48578125 7.89453125 3.4140625 C4.98491062 2.99784147 2.67109226 2.20125904 0 1 C0 0.67 0 0.34 0 0 Z " fill="#D6FBFE" transform="translate(296,434)"/>
<path d="M0 0 C19.14 0 38.28 0 58 0 C58 0.33 58 0.66 58 1 C47.39163382 2.55312028 36.91169978 3.21434428 26.1875 3.25 C24.52690552 3.26353516 24.52690552 3.26353516 22.83276367 3.27734375 C15.06561246 3.24967598 7.64041236 2.37619901 0 1 C0 0.67 0 0.34 0 0 Z " fill="#149AE0" transform="translate(308,435)"/>
<path d="M0 0 C0.66 0 1.32 0 2 0 C1.835 1.27875 1.67 2.5575 1.5 3.875 C0.30567211 16.23980642 0.17537622 28.07819976 4 40 C4.56280444 41.91657729 5.1253215 43.83323901 5.6875 45.75 C6.12212645 47.1675509 6.55846582 48.58458548 7 50 C1.1660055 46.11067033 0.11229084 37.56010253 -1.45068359 30.99804688 C-3.13142502 21.82493368 -4.49034493 8.52803412 0 0 Z " fill="#C5F3FE" transform="translate(245,192)"/>
<path d="M0 0 C2.79422603 0.95135319 5.58524589 1.91069593 8.375 2.875 C9.1690625 3.14441406 9.963125 3.41382813 10.78125 3.69140625 C11.54179687 3.95566406 12.30234375 4.21992188 13.0859375 4.4921875 C13.7876709 4.73308105 14.4894043 4.97397461 15.21240234 5.22216797 C17 6 17 6 19 8 C12.32373009 9.72509924 6.31552429 10.25620222 -0.5625 10.125 C-1.47580078 10.11597656 -2.38910156 10.10695313 -3.33007812 10.09765625 C-5.55367319 10.07437253 -7.77668677 10.0416771 -10 10 C-9.67 11.65 -9.34 13.3 -9 15 C-9.99 15 -10.98 15 -12 15 C-12 12.69 -12 10.38 -12 8 C-4.74 7.67 2.52 7.34 10 7 C9.34 6.67 8.68 6.34 8 6 C8 5.34 8 4.68 8 4 C6.02 4 4.04 4 2 4 C2 3.34 2 2.68 2 2 C1.34 2 0.68 2 0 2 C0 1.34 0 0.68 0 0 Z " fill="#BEF0FD" transform="translate(280,321)"/>
<path d="M0 0 C5.33333333 5.33333333 10.66666667 10.66666667 16 16 C7.02871235 15.71060362 -0.62656023 14.24376495 -9 11 C-5.0156558 9.77206633 -2.91472728 10.61353409 1 12 C2.32 12 3.64 12 5 12 C5 10.68 5 9.36 5 8 C4.01 8 3.02 8 2 8 C0.23537317 4.91190305 0 3.76687864 0 0 Z " fill="#B6EDFC" transform="translate(259,252)"/>
<path d="M0 0 C1.86470735 2.31223711 3.72220835 4.61904965 5.47265625 7.01953125 C13.55985708 17.93629644 23.16268283 24.74020836 35 31 C35 31.33 35 31.66 35 32 C33.35 32 31.7 32 30 32 C30 31.34 30 30.68 30 30 C29.46375 29.896875 28.9275 29.79375 28.375 29.6875 C25.37497956 28.81907303 22.7620465 27.44379704 20 26 C20 25.34 20 24.68 20 24 C19.01 24 18.02 24 17 24 C13.14223591 20.57087636 9.88458044 16.60442748 6.55078125 12.671875 C5.08649533 10.89673637 5.08649533 10.89673637 3 10 C2.27840576 8.35636866 1.60648579 6.68949614 1 5 C0.34 5 -0.32 5 -1 5 C-0.67 3.35 -0.34 1.7 0 0 Z " fill="#D1F6FD" transform="translate(273,341)"/>
<path d="M0 0 C-0.33 0.66 -0.66 1.32 -1 2 C-2.98 2 -4.96 2 -7 2 C-7.33 2.99 -7.66 3.98 -8 5 C-9.13179688 4.98839844 -10.26359375 4.97679687 -11.4296875 4.96484375 C-12.91145669 4.95546546 -14.39322765 4.9463653 -15.875 4.9375 C-16.62136719 4.92912109 -17.36773437 4.92074219 -18.13671875 4.91210938 C-22.19845578 4.79311916 -22.19845578 4.79311916 -26 6 C-25.67 8.64 -25.34 11.28 -25 14 C-27.43581996 11.33219718 -28.51744961 8.72580809 -29.60546875 5.33984375 C-29.8686792 4.52765381 -30.13188965 3.71546387 -30.40307617 2.87866211 C-30.60006104 2.25870361 -30.7970459 1.63874512 -31 1 C-30.07719238 1.00785522 -30.07719238 1.00785522 -29.13574219 1.01586914 C-26.34050524 1.03669371 -23.54528464 1.04967759 -20.75 1.0625 C-19.78191406 1.07087891 -18.81382812 1.07925781 -17.81640625 1.08789062 C-16.88183594 1.09111328 -15.94726562 1.09433594 -14.984375 1.09765625 C-13.69611816 1.10551147 -13.69611816 1.10551147 -12.38183594 1.11352539 C-8.13780405 0.9112422 -4.33653339 -0.09855758 0 0 Z " fill="#1A9CE2" transform="translate(300,329)"/>
<path d="M0 0 C0.66 0 1.32 0 2 0 C2.49720954 18.23866586 1.76239572 36.29631155 -3 54 C-3.33 54 -3.66 54 -4 54 C-4.22192386 47.87243574 -3.85691943 42.89844994 -2 37 C-0.76308875 29.37844392 -0.66771081 21.70640131 -0.4375 14 C-0.39421865 12.63931211 -0.35060161 11.27863485 -0.30664062 9.91796875 C-0.20113317 6.61206843 -0.09901744 3.30610001 0 0 Z " fill="#25A0E0" transform="translate(533,230)"/>
<path d="M0 0 C0.66 0.33 1.32 0.66 2 1 C0.75009681 4.74970958 -0.79712151 5.76543361 -4 8 C-5.3242287 8.36784131 -6.65613912 8.71202981 -8 9 C-8.33 9.66 -8.66 10.32 -9 11 C-9.99 11 -10.98 11 -12 11 C-12.33 12.32 -12.66 13.64 -13 15 C-13.66 15 -14.32 15 -15 15 C-15.33 16.32 -15.66 17.64 -16 19 C-16.66 19 -17.32 19 -18 19 C-18 18.34 -18 17.68 -18 17 C-18.99 17 -19.98 17 -21 17 C-21 17.66 -21 18.32 -21 19 C-24 21 -24 21 -26.1875 20.625 C-27.0846875 20.315625 -27.0846875 20.315625 -28 20 C-27.3915625 19.63390625 -26.783125 19.2678125 -26.15625 18.890625 C-12.34336995 10.40688015 -12.34336995 10.40688015 0 0 Z " fill="#CDF3FB" transform="translate(464,392)"/>
<path d="M0 0 C11.22 0 22.44 0 34 0 C31.43863779 2.56136221 30.33438669 2.29666857 26.7734375 2.4140625 C25.7421875 2.45273437 24.7109375 2.49140625 23.6484375 2.53125 C22.56820312 2.5621875 21.48796875 2.593125 20.375 2.625 C18.74304688 2.68300781 18.74304688 2.68300781 17.078125 2.7421875 C14.38558835 2.83666247 11.69306243 2.92222431 9 3 C9 3.66 9 4.32 9 5 C11.31 5 13.62 5 16 5 C16 6.32 16 7.64 16 9 C12.20950293 7.57250019 8.72877544 5.83763458 5.1875 3.875 C4.21167969 3.33617187 3.23585937 2.79734375 2.23046875 2.2421875 C1.49441406 1.83226562 0.75835937 1.42234375 0 1 C0 0.67 0 0.34 0 0 Z " fill="#209BDF" transform="translate(232,407)"/>
<path d="M0 0 C0.66 0.33 1.32 0.66 2 1 C-0.97 4.96 -0.97 4.96 -4 9 C-4.66 8.34 -5.32 7.68 -6 7 C-5.34 7 -4.68 7 -4 7 C-4 6.34 -4 5.68 -4 5 C-7.63 5.99 -11.26 6.98 -15 8 C-15 8.66 -15 9.32 -15 10 C-18.63 9.67 -22.26 9.34 -26 9 C-23.06150004 7.53075002 -20.89382862 6.59227365 -17.8125 5.78125 C-17.03132812 5.57113281 -16.25015625 5.36101562 -15.4453125 5.14453125 C-13.81510417 4.71484375 -12.18489583 4.28515625 -10.5546875 3.85546875 C-9.77351562 3.64535156 -8.99234375 3.43523437 -8.1875 3.21875 C-7.47980469 3.03248047 -6.77210938 2.84621094 -6.04296875 2.65429688 C-3.93122173 2.04506538 -3.93122173 2.04506538 -1.86328125 0.86132812 C-1.24839844 0.57708984 -0.63351562 0.29285156 0 0 Z " fill="#1F9ADE" transform="translate(566,196)"/>
<path d="M0 0 C1.06992187 0.00644531 2.13984375 0.01289063 3.2421875 0.01953125 C4.35335938 0.03628906 5.46453125 0.05304688 6.609375 0.0703125 C7.73601562 0.07933594 8.86265625 0.08835938 10.0234375 0.09765625 C12.80229865 0.12120592 15.5807289 0.1540957 18.359375 0.1953125 C18.359375 0.8553125 18.359375 1.5153125 18.359375 2.1953125 C20.999375 2.1953125 23.639375 2.1953125 26.359375 2.1953125 C26.359375 2.8553125 26.359375 3.5153125 26.359375 4.1953125 C27.349375 4.5253125 28.339375 4.8553125 29.359375 5.1953125 C26.62248054 6.56375973 24.98430403 5.65144303 22.15209961 4.86035156 C11.47976593 1.89387791 1.36919481 1.78543296 -9.640625 2.1953125 C-6.3223173 0.20570477 -3.84102801 -0.040862 0 0 Z " fill="#CAF5FE" transform="translate(461.640625,160.8046875)"/>
<path d="M0 0 C0.33 0.99 0.66 1.98 1 3 C0.34 3 -0.32 3 -1 3 C-1 11.25 -1 19.5 -1 28 C-1.66 28 -2.32 28 -3 28 C-3.0867562 23.70845978 -3.1403089 19.41714332 -3.1875 15.125 C-3.21263672 13.90167969 -3.23777344 12.67835938 -3.26367188 11.41796875 C-3.27333984 10.25136719 -3.28300781 9.08476562 -3.29296875 7.8828125 C-3.3086792 6.80402832 -3.32438965 5.72524414 -3.34057617 4.61376953 C-3.22818604 3.75122559 -3.1157959 2.88868164 -3 2 C-2.01 1.34 -1.02 0.68 0 0 Z " fill="#D6F9FE" transform="translate(538,228)"/>
<path d="M0 0 C2.58340384 -0.02703562 5.16652308 -0.04685611 7.75 -0.0625 C8.47960937 -0.07087891 9.20921875 -0.07925781 9.9609375 -0.08789062 C13.50929553 -0.10401953 16.58149077 0.14537269 20 1 C21.58567839 1.1421701 23.17518632 1.24504041 24.765625 1.31640625 C25.65507812 1.35830078 26.54453125 1.40019531 27.4609375 1.44335938 C28.38132812 1.48267578 29.30171875 1.52199219 30.25 1.5625 C31.18585938 1.60568359 32.12171875 1.64886719 33.0859375 1.69335938 C35.39048641 1.7991805 37.69513839 1.90126557 40 2 C40 2.33 40 2.66 40 3 C35.77089411 3.05907207 31.54189711 3.09395041 27.3125 3.125 C25.54422852 3.15013672 25.54422852 3.15013672 23.74023438 3.17578125 C15.64005941 3.22016577 7.96407765 2.47369081 0 1 C0 0.67 0 0.34 0 0 Z " fill="#4AB6E9" transform="translate(308,435)"/>
<path d="M0 0 C0 0.66 0 1.32 0 2 C-0.68707031 2.17015625 -1.37414062 2.3403125 -2.08203125 2.515625 C-2.98308594 2.75796875 -3.88414062 3.0003125 -4.8125 3.25 C-5.70582031 3.48203125 -6.59914063 3.7140625 -7.51953125 3.953125 C-10.12116696 4.80267191 -10.12116696 4.80267191 -11.5 7.03125 C-13.50029451 9.65663654 -14.98063806 9.75022931 -18.1875 10.25 C-19.08855469 10.39953125 -19.98960937 10.5490625 -20.91796875 10.703125 C-21.94857422 10.85007813 -21.94857422 10.85007813 -23 11 C-19.97388506 7.63846027 -17.00002446 5.77076768 -12.9375 3.8125 C-11.89464844 3.30332031 -10.85179687 2.79414063 -9.77734375 2.26953125 C-6.15825708 0.61523706 -4.04162214 0 0 0 Z " fill="#1899E5" transform="translate(448,165)"/>
<path d="M0 0 C1.98 0.66 3.96 1.32 6 2 C5.67 2.639375 5.34 3.27875 5 3.9375 C2.87302636 10.45135676 4.03019932 17.33262031 5 24 C2.18694188 21.18694188 2.03891161 18.03023141 1.375 14.25 C1.2409375 13.54617188 1.106875 12.84234375 0.96875 12.1171875 C0.22344435 8.0256116 -0.14449785 4.1773014 0 0 Z " fill="#239DDE" transform="translate(244,260)"/>
<path d="M0 0 C0.33 0 0.66 0 1 0 C1 2.64 1 5.28 1 8 C-8.46383622 7.54362211 -17.67809502 6.81847768 -27 5 C-27 4.67 -27 4.34 -27 4 C-18.75 4.33 -10.5 4.66 -2 5 C-1.34 3.35 -0.68 1.7 0 0 Z " fill="#B8EEFD" transform="translate(396,240)"/>
<path d="M0 0 C5.28 0 10.56 0 16 0 C8.12789002 3.93605499 -0.97825036 3.13753855 -9.625 3.0625 C-10.62917969 3.05798828 -11.63335937 3.05347656 -12.66796875 3.04882812 C-15.11204471 3.03718967 -17.5559882 3.0208424 -20 3 C-20 2.67 -20 2.34 -20 2 C-13.4 2 -6.8 2 0 2 C0 1.34 0 0.68 0 0 Z " fill="#A6E1F8" transform="translate(256,405)"/>
<path d="M0 0 C2.17863343 2.17863343 3.06800313 4.03617225 4.375 6.8125 C6.22773881 10.61143923 8.15310377 13.83678196 11 17 C10.67 17.66 10.34 18.32 10 19 C9.01 18.67 8.02 18.34 7 18 C5.8125 14.4375 5.8125 14.4375 5 11 C3.68 10.67 2.36 10.34 1 10 C1 10.66 1 11.32 1 12 C0.34 12 -0.32 12 -1 12 C-0.67 8.04 -0.34 4.08 0 0 Z " fill="#D5F6F9" transform="translate(249,286)"/>
<path d="M0 0 C0.66 0.33 1.32 0.66 2 1 C0.73888071 3.63007775 -0.53324591 6.25376131 -1.8125 8.875 C-2.16892578 9.62136719 -2.52535156 10.36773437 -2.89257812 11.13671875 C-3.24384766 11.85214844 -3.59511719 12.56757813 -3.95703125 13.3046875 C-4.27647705 13.96452637 -4.59592285 14.62436523 -4.92504883 15.30419922 C-6 17 -6 17 -9 19 C-8.34 17.02 -7.68 15.04 -7 13 C-6.34 13 -5.68 13 -5 13 C-5 10.69 -5 8.38 -5 6 C-4.01 6 -3.02 6 -2 6 C-3.65 5.67 -5.3 5.34 -7 5 C-4.702779 3.25728062 -2.40133271 1.60088848 0 0 Z " fill="#1F9BE2" transform="translate(558,168)"/>
<path d="M0 0 C0 0.66 0 1.32 0 2 C-0.99 2 -1.98 2 -3 2 C-3.33 2.99 -3.66 3.98 -4 5 C-6.31 5.33 -8.62 5.66 -11 6 C-11 6.66 -11 7.32 -11 8 C-14.63 8.33 -18.26 8.66 -22 9 C-18.32438195 6.54958797 -14.5142466 5.03953056 -10.4375 3.375 C-9.65697266 3.05015625 -8.87644531 2.7253125 -8.07226562 2.390625 C-7.32525391 2.08382813 -6.57824219 1.77703125 -5.80859375 1.4609375 C-5.12595459 1.18040527 -4.44331543 0.89987305 -3.73999023 0.61083984 C-2 0 -2 0 0 0 Z " fill="#C2EFFB" transform="translate(424,419)"/>
<path d="M0 0 C3.96 0.33 7.92 0.66 12 1 C12 1.33 12 1.66 12 2 C14.97 2.495 14.97 2.495 18 3 C18 3.66 18 4.32 18 5 C19.60875 4.9071875 19.60875 4.9071875 21.25 4.8125 C25.10866187 5.00543309 26.28817788 5.39665076 29 8 C22.12695233 7.4476391 16.00059271 6.01284333 9.4375 3.9375 C8.52419922 3.65583984 7.61089844 3.37417969 6.66992188 3.08398438 C4.44427788 2.39648178 2.22118518 1.70174718 0 1 C0 0.67 0 0.34 0 0 Z " fill="#BEEFFB" transform="translate(340,236)"/>
<path d="M0 0 C2.33303944 0.03703237 4.66715242 0.04760913 7 0 C3.58269981 2.27820013 0.45082883 2.92367309 -3.5 3.6875 C-4.17675781 3.82994141 -4.85351562 3.97238281 -5.55078125 4.11914062 C-8.84968984 4.77306629 -10.75529651 5.08156783 -14 4 C-8.83605401 -0.32085277 -6.80532643 -1.57980792 0 0 Z " fill="#BFF1FE" transform="translate(544,201)"/>
<path d="M0 0 C6.07556943 1.87790328 11.93715557 4.14147553 17.8125 6.5625 C18.92419556 7.01991577 18.92419556 7.01991577 20.05834961 7.48657227 C23.43105751 8.88723666 26.76680063 10.29429639 30 12 C24.73378394 11.40421223 20.05591981 10.18691204 15.0625 8.4375 C14.37865234 8.20353516 13.69480469 7.96957031 12.99023438 7.72851562 C11.32491499 7.15788171 9.66217507 6.57972902 8 6 C8 5.34 8 4.68 8 4 C7.236875 3.855625 6.47375 3.71125 5.6875 3.5625 C3 3 3 3 0 2 C0 1.34 0 0.68 0 0 Z " fill="#C5F2FD" transform="translate(248,417)"/>
<path d="M0 0 C1.9375 0.75 1.9375 0.75 4 2 C4.8125 4 4.8125 4 5 6 C4.67 6.66 4.34 7.32 4 8 C3.01 8 2.02 8 1 8 C1 7.34 1 6.68 1 6 C0.01 6.495 0.01 6.495 -1 7 C-1.65772428 10.02934491 -1.65772428 10.02934491 -2 13 C-2.99 13 -3.98 13 -5 13 C-4.54554036 11.58208592 -4.08625056 10.16571954 -3.625 8.75 C-3.24214844 7.56664062 -3.24214844 7.56664062 -2.8515625 6.359375 C-2.04826333 4.13372042 -1.10288338 2.09068328 0 0 Z " fill="#119EEC" transform="translate(253,176)"/>
<path d="M0 0 C1.98 0.66 3.96 1.32 6 2 C6.33 3.65 6.66 5.3 7 7 C7.99 7 8.98 7 10 7 C10.33 8.32 10.66 9.64 11 11 C11.99 11 12.98 11 14 11 C14.33 12.65 14.66 14.3 15 16 C9.42911449 11.47365552 4.52582802 6.58381379 0 1 C0 0.67 0 0.34 0 0 Z " fill="#D2F4FC" transform="translate(257,178)"/>
<path d="M0 0 C-3.3324834 2.2216556 -6.69524628 4.39416673 -10.0625 6.5625 C-10.69994141 6.97435547 -11.33738281 7.38621094 -11.99414062 7.81054688 C-16.7671131 10.88355655 -16.7671131 10.88355655 -19 12 C-19.33 11.01 -19.66 10.02 -20 9 C-18.35 8.67 -16.7 8.34 -15 8 C-15 7.34 -15 6.68 -15 6 C-14.34 5.34 -13.68 4.68 -13 4 C-11.68 4 -10.36 4 -9 4 C-8.67 3.01 -8.34 2.02 -8 1 C-5.07175348 0.02391783 -3.04386724 -0.08226668 0 0 Z " fill="#CAF3FC" transform="translate(439,167)"/>
<path d="M0 0 C0.33 0 0.66 0 1 0 C1.39253254 4.44870215 0.15305957 7.14243493 -2 11 C-0.68 11.66 0.64 12.32 2 13 C2 13.99 2 14.98 2 16 C0.68 15.67 -0.64 15.34 -2 15 C-2 14.34 -2 13.68 -2 13 C-2.66 13 -3.32 13 -4 13 C-4 13.66 -4 14.32 -4 15 C-4.66 15 -5.32 15 -6 15 C-4.40109514 9.80355921 -2.25861997 4.93387858 0 0 Z " fill="#D8F7FD" transform="translate(518,318)"/>
<path d="M0 0 C1 3 1 3 0 6 C-0.66 6 -1.32 6 -2 6 C-2 6.66 -2 7.32 -2 8 C-2.66 8 -3.32 8 -4 8 C-4.12375 8.78375 -4.2475 9.5675 -4.375 10.375 C-5 13 -5 13 -7 15 C-9.125 14.625 -9.125 14.625 -11 14 C-10.54109375 13.49210938 -10.0821875 12.98421875 -9.609375 12.4609375 C-6.05320338 8.47145085 -2.83291718 4.53266749 0 0 Z " fill="#D6F9FA" transform="translate(567,197)"/>
<path d="M0 0 C0.33 0 0.66 0 1 0 C1.33 3.3 1.66 6.6 2 10 C1.34 10 0.68 10 0 10 C-0.33 15.61 -0.66 21.22 -1 27 C-1.33 27 -1.66 27 -2 27 C-2.3690205 7.99544419 -2.3690205 7.99544419 0 0 Z " fill="#239DDC" transform="translate(398,213)"/>
<path d="M0 0 C1.66666667 1.66666667 3.33333333 3.33333333 5 5 C5.78375 5.680625 6.5675 6.36125 7.375 7.0625 C8.179375 8.0215625 8.179375 8.0215625 9 9 C8.75 11.25 8.75 11.25 8 13 C7.01 12.67 6.02 12.34 5 12 C5 10.68 5 9.36 5 8 C4.01 8 3.02 8 2 8 C0.23537317 4.91190305 0 3.76687864 0 0 Z " fill="#DEF4FD" transform="translate(259,252)"/>
<path d="M0 0 C0.33 0 0.66 0 1 0 C1.04898438 1.07378906 1.09796875 2.14757812 1.1484375 3.25390625 C1.22353398 4.69012642 1.29907876 6.12632319 1.375 7.5625 C1.4059375 8.26697266 1.436875 8.97144531 1.46875 9.69726562 C1.72843875 14.3933039 2.63767826 18.47357616 4 23 C4.07403678 25.33215844 4.09515886 27.66860788 4 30 C-1.75616935 21.36574597 -0.19285109 9.93183092 0 0 Z " fill="#289CD9" transform="translate(245,202)"/>
<path d="M0 0 C0.66386719 0.33773437 1.32773437 0.67546875 2.01171875 1.0234375 C5.73475145 2.24011485 8.98362138 1.99139987 12.8125 1.625 C13.50537109 1.56828125 14.19824219 1.5115625 14.91210938 1.453125 C16.60898446 1.31269396 18.30465248 1.15780593 20 1 C15.59975862 3.93349425 9.32184568 6.03480333 4 5 C1.6875 2.5 1.6875 2.5 0 0 Z " fill="#C4F1FD" transform="translate(511,179)"/>
<path d="M0 0 C1 2 1 2 1 6 C0.01 6 -0.98 6 -2 6 C-1.690625 6.928125 -1.690625 6.928125 -1.375 7.875 C-1.25125 8.57625 -1.1275 9.2775 -1 10 C-1.66 10.66 -2.32 11.32 -3 12 C-3.6425235 14.06874034 -3.6425235 14.06874034 -4 16 C-4.66 16 -5.32 16 -6 16 C-5.52412884 9.97229862 -2.80277043 5.23321711 0 0 Z " fill="#239DE3" transform="translate(405,197)"/>
<path d="M0 0 C1.65 0 3.3 0 5 0 C5 0.66 5 1.32 5 2 C6.32 2 7.64 2 9 2 C9 2.66 9 3.32 9 4 C11.31 4 13.62 4 16 4 C15.67 4.66 15.34 5.32 15 6 C9.22621075 5.5188509 5.04140164 3.81532819 0 1 C0 0.67 0 0.34 0 0 Z M9 1 C11 2 11 2 11 2 Z " fill="#26A1E6" transform="translate(303,369)"/>
<path d="M0 0 C-1.90641815 1.98930589 -3.41569191 2.92722517 -6.1640625 3.26953125 C-12.42738898 3.38174068 -12.42738898 3.38174068 -16 1 C-10.59255982 0.22750855 -5.46137814 -0.09752461 0 0 Z " fill="#BBEDFA" transform="translate(374,435)"/>
<path d="M0 0 C0.33 0.66 0.66 1.32 1 2 C0.0625 4.125 0.0625 4.125 -1 6 C-1.66 6 -2.32 6 -3 6 C-3.433125 7.1446875 -3.433125 7.1446875 -3.875 8.3125 C-5 11 -5 11 -7 14 C-8.32 13.67 -9.64 13.34 -11 13 C-10.06027344 11.96939453 -10.06027344 11.96939453 -9.1015625 10.91796875 C-8.28429687 10.01691406 -7.46703125 9.11585938 -6.625 8.1875 C-5.81289063 7.29417969 -5.00078125 6.40085937 -4.1640625 5.48046875 C-1.90927093 3.00367326 -1.90927093 3.00367326 0 0 Z " fill="#C5F2FD" transform="translate(494,360)"/>
<path d="M0 0 C0.99 0.33 1.98 0.66 3 1 C1.71284028 2.64936048 0.42012981 4.29439047 -0.875 5.9375 C-1.95394531 7.31228516 -1.95394531 7.31228516 -3.0546875 8.71484375 C-5 11 -5 11 -7 12 C-7 11.01 -7 10.02 -7 9 C-6.34 9 -5.68 9 -5 9 C-4.67 7.35 -4.34 5.7 -4 4 C-3.01 4 -2.02 4 -1 4 C-0.67 2.68 -0.34 1.36 0 0 Z " fill="#1C9BDB" transform="translate(492,359)"/>
<path d="M0 0 C2.97 0 5.94 0 9 0 C9 0.66 9 1.32 9 2 C7.46875 3.2890625 7.46875 3.2890625 5.5 4.625 C4.8503125 5.07101562 4.200625 5.51703125 3.53125 5.9765625 C3.0259375 6.31429688 2.520625 6.65203125 2 7 C2 6.01 2 5.02 2 4 C2.66 4 3.32 4 4 4 C4 3.34 4 2.68 4 2 C2.68 2 1.36 2 0 2 C0 1.34 0 0.68 0 0 Z " fill="#B5F1FE" transform="translate(324,377)"/>
<path d="M0 0 C-1.55780332 0.67756882 -3.12150096 1.34159457 -4.6875 2 C-5.55761719 2.37125 -6.42773438 2.7425 -7.32421875 3.125 C-10.0572002 4.01870488 -12.14700934 4.16449676 -15 4 C-13.68 3.34 -12.36 2.68 -11 2 C-11 1.34 -11 0.68 -11 0 C-6.97959015 -0.69584017 -3.91736581 -1.1700097 0 0 Z " fill="#C2F0FD" transform="translate(566,197)"/>
<path d="M0 0 C6.69007182 0.52405563 13.3487487 1.10463925 20 2 C20 2.33 20 2.66 20 3 C17.60385874 3.05425226 15.20896147 3.09379027 12.8125 3.125 C11.80219727 3.15013672 11.80219727 3.15013672 10.77148438 3.17578125 C6.71192193 3.21538674 3.65001185 2.80020002 0 1 C0 0.67 0 0.34 0 0 Z " fill="#C9F2FD" transform="translate(296,434)"/>
<path d="M0 0 C1.31471568 0.28151087 2.62675767 0.57553339 3.9375 0.875 C4.66839844 1.03742188 5.39929688 1.19984375 6.15234375 1.3671875 C8 2 8 2 9 4 C9.825 4.495 10.65 4.99 11.5 5.5 C14 7 14 7 15 9 C9.26800429 7.53025751 4.66416601 4.55513098 0 1 C0 0.67 0 0.34 0 0 Z " fill="#289FE1" transform="translate(272,315)"/>
<path d="M0 0 C1.32 0.33 2.64 0.66 4 1 C3.34 1 2.68 1 2 1 C1.80664062 1.59167969 1.61328125 2.18335938 1.4140625 2.79296875 C0.05585281 6.9146645 -1.32050585 10.9950524 -3 15 C-3.33 15 -3.66 15 -4 15 C-4.33168041 10.2459141 -3.59443287 7.94353797 -1 4 C-0.30420546 1.80869466 -0.30420546 1.80869466 0 0 Z " fill="#CEF4FD" transform="translate(251,175)"/>
<path d="M0 0 C6.0509304 1.16554807 12.03466226 2.45343096 18 4 C18 4.33 18 4.66 18 5 C15.9367016 4.93958131 13.87422586 4.85068362 11.8125 4.75 C10.66394531 4.70359375 9.51539063 4.6571875 8.33203125 4.609375 C4.51739886 3.91174 2.79038811 2.62748409 0 0 Z " fill="#CAF3FE" transform="translate(278,429)"/>
<path d="M0 0 C-5.97332123 3.4753869 -10.11509775 4.57374185 -17 4 C-13.87708931 2.30533993 -10.79668129 1.25784321 -7.375 0.3125 C-6.41335938 0.04050781 -5.45171875 -0.23148437 -4.4609375 -0.51171875 C-2 -1 -2 -1 0 0 Z " fill="#C5F0FC" transform="translate(401,429)"/>
<path d="M0 0 C0.33 1.32 0.66 2.64 1 4 C-3.39453125 8.00390625 -3.39453125 8.00390625 -5 9 C-5.99 8.67 -6.98 8.34 -8 8 C-5.36 5.36 -2.72 2.72 0 0 Z " fill="#D8F5FB" transform="translate(474,383)"/>
<path d="M0 0 C0.66 0 1.32 0 2 0 C1.39254603 4.85963179 -0.72758967 8.7405518 -3 13 C-3.33 13 -3.66 13 -4 13 C-4.22036864 9.14354879 -3.60355101 6.50776784 -2 3 C-1.34 3 -0.68 3 0 3 C0 2.01 0 1.02 0 0 Z " fill="#209DDA" transform="translate(515,320)"/>
<path d="M0 0 C0 0.66 0 1.32 0 2 C-1.56159059 2.48212214 -3.12431928 2.96055873 -4.6875 3.4375 C-5.55761719 3.70433594 -6.42773438 3.97117188 -7.32421875 4.24609375 C-9.87025921 4.96344529 -12.4003423 5.517541 -15 6 C-12.86285601 3.62317631 -11.06221946 2.40068998 -8.0625 1.3125 C-7.39347656 1.06113281 -6.72445313 0.80976563 -6.03515625 0.55078125 C-4 0 -4 0 0 0 Z " fill="#2CA2DA" transform="translate(448,165)"/>
<path d="M0 0 C0.33 0 0.66 0 1 0 C1.31416607 5.23610116 0.77647622 8.51492303 -2 13 C-2.99 13.495 -2.99 13.495 -4 14 C-3.52372025 12.04096255 -3.04388577 10.08278903 -2.5625 8.125 C-2.29566406 7.03445313 -2.02882813 5.94390625 -1.75390625 4.8203125 C-1 2 -1 2 0 0 Z " fill="#BFEFFD" transform="translate(526,296)"/>
<path d="M0 0 C0.66 0 1.32 0 2 0 C0.55049545 3.7910119 -1.15172566 7.3874638 -3 11 C-5 7.25 -5 7.25 -5 5 C-4.01 5 -3.02 5 -2 5 C-1.67 4.01 -1.34 3.02 -1 2 C-0.67 1.34 -0.34 0.68 0 0 Z " fill="#D4F5FB" transform="translate(405,193)"/>
<path d="M0 0 C1.3778771 3.13153887 0.90076044 4.28779473 -0.25 7.625 C-2 11 -2 11 -5 13 C-4.54554036 11.58208592 -4.08625056 10.16571954 -3.625 8.75 C-3.24214844 7.56664062 -3.24214844 7.56664062 -2.8515625 6.359375 C-2.04826333 4.13372042 -1.10288338 2.09068328 0 0 Z " fill="#C6F3FE" transform="translate(559,169)"/>
<path d="M0 0 C3.63 1.65 7.26 3.3 11 5 C7.21111092 5.94722227 6.43032472 6.02909741 3 5 C2.34 5 1.68 5 1 5 C0.67 3.35 0.34 1.7 0 0 Z " fill="#27A0E4" transform="translate(319,227)"/>
<path d="M0 0 C-1.12073862 0.83905565 -2.24674547 1.67107831 -3.375 2.5 C-4.00148438 2.9640625 -4.62796875 3.428125 -5.2734375 3.90625 C-7 5 -7 5 -9 5 C-9 4.01 -9 3.02 -9 2 C-8.34 2 -7.68 2 -7 2 C-7 1.34 -7 0.68 -7 0 C-3.86650268 -1.04449911 -3.01031744 -0.93423645 0 0 Z " fill="#1E9BE2" transform="translate(453,402)"/>
<path d="M0 0 C0 1.66666667 0 3.33333333 0 5 C-2.375 6.6875 -2.375 6.6875 -5 8 C-5.66 7.67 -6.32 7.34 -7 7 C-4.78071806 4.09197539 -3.07030857 2.04687238 0 0 Z " fill="#1F9FE2" transform="translate(420,179)"/>
<path d="M0 0 C1.32 0 2.64 0 4 0 C5.5625 2.25 5.5625 2.25 7 5 C7.98244845 6.34631825 8.97676564 7.68441297 10 9 C6.78956118 7.61811547 4.95063635 6.07578097 2.75 3.375 C2.22921875 2.74335938 1.7084375 2.11171875 1.171875 1.4609375 C0.78515625 0.97882813 0.3984375 0.49671875 0 0 Z " fill="#2A9EDD" transform="translate(260,304)"/>
<path d="M0 0 C6.93 0.495 6.93 0.495 14 1 C14 1.33 14 1.66 14 2 C12.23186888 2.24915939 10.46025018 2.47366632 8.6875 2.6875 C7.70136719 2.81511719 6.71523437 2.94273437 5.69921875 3.07421875 C3 3 3 3 0 0 Z " fill="#2D98D1" transform="translate(232,407)"/>
<path d="M0 0 C0.33 0.99 0.66 1.98 1 3 C-0.4375 5.1875 -0.4375 5.1875 -2 7 C-3.32 6.67 -4.64 6.34 -6 6 C-4.02 4.02 -2.04 2.04 0 0 Z " fill="#BEEFFE" transform="translate(555,212)"/>
<path d="M0 0 C1.60080151 4.00200378 0.29279692 7.04556236 -1 11 C-1.99 11 -2.98 11 -4 11 C-3.52269162 9.5410574 -3.04308958 8.08286504 -2.5625 6.625 C-2.29566406 5.81289062 -2.02882812 5.00078125 -1.75390625 4.1640625 C-1 2 -1 2 0 0 Z " fill="#279FE1" transform="translate(252,178)"/>
<path d="M0 0 C1.48280196 0.78483659 2.9611498 1.57809334 4.4375 2.375 C5.67306641 3.03628906 5.67306641 3.03628906 6.93359375 3.7109375 C9 5 9 5 10 7 C8.51515588 6.60404157 7.0371169 6.18249294 5.5625 5.75 C4.73878906 5.51796875 3.91507812 5.2859375 3.06640625 5.046875 C1 4 1 4 0.21484375 1.890625 C0.14394531 1.26671875 0.07304687 0.6428125 0 0 Z " fill="#2DA5E3" transform="translate(499,171)"/>
<path d="M0 0 C0.66 0.33 1.32 0.66 2 1 C0.515 3.475 0.515 3.475 -1 6 C-3.97 5.505 -3.97 5.505 -7 5 C-4.702779 3.25728062 -2.40133271 1.60088848 0 0 Z " fill="#299CDC" transform="translate(558,168)"/>
<path d="M0 0 C0 2 0 2 -1.1875 3.6875 C-3 5 -3 5 -5.6875 4.6875 C-6.450625 4.460625 -7.21375 4.23375 -8 4 C-2.7826087 0 -2.7826087 0 0 0 Z " fill="#179CE6" transform="translate(315,391)"/>
<path d="M0 0 C4.875 4.75 4.875 4.75 6 7 C4.68 7.33 3.36 7.66 2 8 C0.23537317 4.91190305 0 3.76687864 0 0 Z " fill="#C7F2FB" transform="translate(259,252)"/>
<path d="M0 0 C1 3 1 3 0 6 C-0.66 6 -1.32 6 -2 6 C-2 6.66 -2 7.32 -2 8 C-3.32 8.33 -4.64 8.66 -6 9 C-4.02 6.03 -2.04 3.06 0 0 Z " fill="#C3F1FC" transform="translate(567,197)"/>
<path d="M0 0 C6.64615385 1.47692308 6.64615385 1.47692308 8.4375 4.125 C8.7159375 5.053125 8.7159375 5.053125 9 6 C5.06326356 4.68775452 2.77280706 3.08089673 0 0 Z " fill="#C6F1FE" transform="translate(290,209)"/>
<path d="M0 0 C0.88492145 2.47778006 1.11637742 3.66056586 0.25 6.1875 C-1 8 -1 8 -4 9 C-2.80100302 5.9168649 -1.52299523 2.93720508 0 0 Z " fill="#C6F4FE" transform="translate(511,333)"/>
<path d="M0 0 C2.40072955 2.88087546 4.47291037 5.56404834 6 9 C4.125 8.8125 4.125 8.8125 2 8 C0.47835901 5.10888212 0 3.28176588 0 0 Z " fill="#BFF1FC" transform="translate(254,296)"/>
<path d="M0 0 C1.32 0.33 2.64 0.66 4 1 C1.03 3.475 1.03 3.475 -2 6 C-2.33 5.01 -2.66 4.02 -3 3 C-2.01 3 -1.02 3 0 3 C0 2.01 0 1.02 0 0 Z " fill="#1C98DE" transform="translate(543,220)"/>
<path d="M0 0 C3.465 1.98 3.465 1.98 7 4 C4.50935112 4.68707555 2.62113708 5 0 5 C0 3.35 0 1.7 0 0 Z " fill="#209DE7" transform="translate(301,217)"/>
<path d="M0 0 C0.66 0.99 1.32 1.98 2 3 C0.35 4.65 -1.3 6.3 -3 8 C-3.66 7.67 -4.32 7.34 -5 7 C-3.35 4.69 -1.7 2.38 0 0 Z " fill="#C8F2FC" transform="translate(553,182)"/>
</svg>
